PathFileType	4	(X/Y/Z)	Walk4.trc
DataRate	CameraRate	NumFrames	NumMarkers	Units	OrigDataRate	OrigDataStartFrame	OrigNumFrames
200.000000	200.000000	5	59	mm	200.000000	361	559
Frame#	Times		LFHD		C7		CLAV		STRN		RBack		RASI		RACR1		RUA1		RElbow		RFA1		RWRU		RCAR		LACR1		LUA1		LFA1		LWRR		LCAR		RTH1		RTH3		RTH2		RLFC		LTH1		LTH3		LTH2		LTH4		LLFC		LTB1		LTB3		LTB4		LMT1		LToe		T10		RTH4		LMMAL		LTB2		LMT5		RFHD		RPSI		RWRR		RToe		LLMAL		LElbow		LPSI		RBHD		RTB1		LBHD		LWRU		LElbowM		RTB2		RTB4		RTB3		RMT1		LASI		RMMAL		RLMAL		RMT5		RCAL		LCAL		RElbowM
			X1	Y1	Z1	X2	Y2	Z2	X3	Y3	Z3	X4	Y4	Z4	X5	Y5	Z5	X6	Y6	Z6	X7	Y7	Z7	X8	Y8	Z8	X9	Y9	Z9	X10	Y10	Z10	X11	Y11	Z11	X12	Y12	Z12	X13	Y13	Z13	X14	Y14	Z14	X15	Y15	Z15	X16	Y16	Z16	X17	Y17	Z17	X18	Y18	Z18	X19	Y19	Z19	X20	Y20	Z20	X21	Y21	Z21	X22	Y22	Z22	X23	Y23	Z23	X24	Y24	Z24	X25	Y25	Z25	X26	Y26	Z26	X27	Y27	Z27	X28	Y28	Z28	X29	Y29	Z29	X30	Y30	Z30	X31	Y31	Z31	X32	Y32	Z32	X33	Y33	Z33	X34	Y34	Z34	X35	Y35	Z35	X36	Y36	Z36	X37	Y37	Z37	X38	Y38	Z38	X39	Y39	Z39	X40	Y40	Z40	X41	Y41	Z41	X42	Y42	Z42	X43	Y43	Z43	X44	Y44	Z44	X45	Y45	Z45	X46	Y46	Z46	X47	Y47	Z47	X48	Y48	Z48	X49	Y49	Z49	X50	Y50	Z50	X51	Y51	Z51	X52	Y52	Z52	X53	Y53	Z53	X54	Y54	Z54	X55	Y55	Z55	X56	Y56	Z56	X57	Y57	Z57	X58	Y58	Z58	X59	Y59	Z59

361	1.805	75.128	1563.2	-41.512	-89.991	1395.6	-1.5369	36.342	1319.9	-16.378	118.24	1096.6	-25.012	-126.46	1286.5	92.605	85.317	924.99	113.01	-5.1739	1323.7	161.26	-46.687	1113.7	218.16	-81.672	1011.3	237.76	-44.031	864.31	249.77	-90.387	761.89	270.04	-52.662	712.9	265.79	-35.857	1337.8	-180.83	-30.93	1132.9	-238.72	77.571	922.02	-268.97	151.33	832.59	-230.69	166.61	794.61	-274.63	34.644	741.18	172.13	99.091	566.37	134.81	121.66	684.46	115.21	129.08	468.92	122.73	-71.648	705.14	-167.09	-81.494	521.61	-135.69	-5.6281	607.96	-125.31	-78.041	609.18	-151.68	-112.61	418.29	-121.37	-147.85	318.55	-46.643	-284.05	189.27	-52.552	-216.01	251.2	-53.526	-278.6	37.921	-50.546	-236.66	26.421	-80.322	-119.73	1110.7	-3.8377	67.248	653.62	153.6	-365.91	130.69	-21.18	-230.14	269.79	-122.27	-323.09	27.243	-124.11	84.169	1564.2	31.307	-137.65	957.7	73.756	-41.496	756.13	214.35	367.15	39.695	80.353	-386.13	127.76	-102.07	-24.338	1012.8	-260.19	-154.65	949.72	-39.336	-85.029	1523.1	73.244	177.07	354.02	45.884	-95.195	1531.9	-53.497	103.4	803.45	-275.67	-41.476	990.95	-194.17	175.21	263.11	115.01	184.62	261.46	44.993	193.29	169.74	43.504	328.49	45.012	49.637	43.498	913.88	-153.33	186.72	77.609	14.213	168.65	57.493	92.175	284.42	22.83	126.79	128.05	22.374	42.92	-443.64	129.98	-48.37	-98.76	992.29	154.91
362	1.81	80.974	1563.3	-40.48	-83.723	1395.5	-0.39496	42.624	1319.9	-15.319	124.78	1096.7	-24.149	-119.99	1286.3	93.742	92.004	925.15	113.37	1.2822	1323.5	162.3	-39.624	1113.3	218.97	-74.401	1010.8	238.44	-36.674	863.91	250.35	-82.924	761.47	270.67	-45.208	712.49	266.34	-29.496	1337.8	-179.75	-25.175	1132.9	-237.66	82.708	921.88	-268.33	156.66	832.57	-230.38	171.66	794.57	-274.36	42.157	741.99	172.34	107.16	567.61	134.31	128.88	685.81	114.47	136.45	469.47	122.43	-63.895	704.53	-166.13	-72.441	520.87	-135.28	2.6248	607.8	-124.23	-69.621	608.49	-151.03	-103.22	417.92	-121.19	-139.88	318.52	-47.038	-278.28	191.66	-53.912	-209.2	252.46	-54.454	-277.86	38.239	-50.831	-236.8	26.275	-80.248	-113.65	1110.6	-3.002	74.959	654.65	153.28	-361.26	134.65	-22.901	-222.95	271.71	-123.09	-321.99	28.605	-124.29	90.038	1564.4	32.335	-131.44	957.91	74.489	-34.154	755.7	214.87	368.39	37.176	79.269	-381.37	132.18	-103.8	-19.119	1012.8	-259.25	-148.57	949.31	-38.705	-79.034	1522.9	74.36	182.39	353.82	45.29	-89.281	1531.6	-52.37	108.43	803.25	-274.95	-36.039	990.96	-193.14	179.84	262.94	114.54	188.48	261.15	44.373	195.68	169.31	42.851	329.24	42.987	48.545	49.949	913.53	-151.84	187.41	77.1	13.704	169.55	57.583	91.784	284.68	22.247	126.95	128.08	22.779	42.976	-438.55	136.42	-50.391	-91.492	991.92	155.59
363	1.815	86.822	1563.5	-39.46	-77.481	1395.4	0.72079	48.875	1319.9	-14.281	131.28	1096.8	-23.285	-113.54	1286.2	94.87	98.655	925.39	113.75	7.7272	1323.4	163.32	-32.539	1113	219.76	-67.106	1010.4	239.12	-29.247	863.58	250.9	-75.357	761.11	271.28	-37.638	712.16	266.88	-23.145	1337.8	-178.68	-19.441	1133	-236.6	87.759	921.76	-267.68	161.84	832.53	-230.05	176.55	794.47	-274.06	49.473	742.75	172.6	115.06	568.8	133.87	135.92	687.11	113.84	143.66	469.99	122.12	-56.03	703.96	-165.18	-63.128	520.17	-134.9	11.054	607.73	-123.14	-61.012	607.83	-150.39	-93.506	417.59	-121.04	-131.57	318.56	-47.455	-272.13	194.16	-55.285	-202.02	253.8	-55.401	-276.95	38.672	-51.152	-236.9	26.125	-80.201	-107.63	1110.7	-2.1921	82.491	655.61	153.03	-356.2	138.73	-24.623	-215.39	273.73	-123.91	-320.69	30.174	-124.5	95.907	1564.7	33.35	-125.28	958.12	75.192	-26.715	755.35	215.37	369.49	35.07	78.321	-376.22	136.74	-105.54	-13.941	1012.8	-258.31	-142.52	948.91	-38.102	-73.042	1522.7	75.456	187.55	353.62	44.687	-83.366	1531.4	-51.261	113.32	803.05	-274.21	-30.652	991.03	-192.1	184.3	262.78	114.06	192.2	260.84	43.749	197.93	168.91	42.2	329.86	41.305	47.549	56.441	913.23	-150.3	187.99	76.653	13.205	170.35	57.712	91.397	284.86	21.845	127.07	128.09	23.149	43.016	-432.98	143.04	-52.424	-84.207	991.63	156.26
364	1.82	92.672	1563.7	-38.458	-71.272	1395.4	1.8096	55.088	1320	-13.267	137.73	1097	-22.422	-107.11	1286.1	95.987	105.26	925.7	114.15	14.156	1323.3	164.31	-25.434	1112.7	220.53	-59.794	1010.1	239.8	-21.751	863.33	251.43	-67.685	760.82	271.88	-29.95	711.89	267.38	-16.813	1337.9	-177.62	-13.725	1133.1	-235.57	92.727	921.64	-267.02	166.89	832.46	-229.71	181.29	794.32	-273.74	56.58	743.43	172.93	122.74	569.9	133.49	142.77	688.32	113.34	150.69	470.45	121.82	-48.068	703.43	-164.25	-53.582	519.52	-134.54	19.639	607.75	-122.05	-52.235	607.23	-149.77	-83.493	417.3	-120.93	-122.93	318.67	-47.89	-265.59	196.75	-56.651	-194.49	255.22	-56.353	-275.84	39.237	-51.511	-236.91	25.974	-80.184	-101.65	1110.7	-1.4045	89.821	656.5	152.87	-350.75	142.94	-26.323	-207.48	275.83	-124.74	-319.15	31.963	-124.72	101.78	1564.9	34.35	-119.17	958.33	75.867	-19.18	755.08	215.85	370.47	33.348	77.511	-370.67	141.41	-107.27	-8.8028	1012.9	-257.37	-136.51	948.54	-37.521	-67.058	1522.6	76.529	192.54	353.4	44.093	-77.454	1531.2	-50.173	118.07	802.84	-273.46	-25.31	991.17	-191.05	188.58	262.62	113.59	195.77	260.54	43.14	200.04	168.53	41.569	330.37	39.94	46.655	62.971	912.96	-148.72	188.47	76.262	12.726	171.04	57.869	91.024	284.97	21.593	127.17	128.07	23.482	43.039	-426.96	149.79	-54.447	-76.911	991.4	156.93
365	1.825	98.521	1564	-37.476	-65.106	1395.5	2.8712	61.259	1320.1	-12.281	144.13	1097.2	-21.56	-100.72	1286.1	97.091	111.82	926.08	114.58	20.563	1323.3	165.28	-18.317	1112.5	221.29	-52.469	1009.8	240.47	-14.189	863.14	251.94	-59.911	760.57	272.45	-22.145	711.69	267.85	-10.514	1338.1	-176.57	-8.0283	1133.3	-234.55	97.618	921.54	-266.35	171.8	832.35	-229.35	185.88	794.13	-273.39	63.469	744.03	173.32	130.18	570.89	133.18	149.42	689.43	113	157.5	470.84	121.54	-40.026	702.96	-163.33	-43.836	518.93	-134.2	28.359	607.87	-120.98	-43.316	606.68	-149.17	-73.215	417.08	-120.85	-113.98	318.86	-48.337	-258.69	199.42	-57.99	-186.61	256.73	-57.298	-274.5	39.946	-51.905	-236.81	25.827	-80.202	-95.712	1110.9	-0.63598	96.927	657.29	152.81	-344.91	147.24	-27.976	-199.23	278.01	-125.55	-317.32	33.983	-124.96	107.64	1565.2	35.33	-113.11	958.53	76.515	-11.551	754.89	216.3	371.33	31.97	76.837	-364.72	146.16	-108.95	-3.7029	1013.1	-256.42	-130.54	948.2	-36.959	-61.084	1522.5	77.578	197.36	353.16	43.528	-71.547	1531.1	-49.108	122.67	802.63	-272.7	-20.013	991.36	-189.98	192.65	262.43	113.13	199.2	260.24	42.563	202.02	168.17	40.971	330.78	38.859	45.867	69.534	912.73	-147.12	188.86	75.921	12.273	171.65	58.044	90.672	285.03	21.464	127.24	128.05	23.78	43.044	-420.48	156.64	-56.436	-69.612	991.24	157.59
